<svg width="24" height="24" viewBox="0 0 24 24" fill="none" xmlns="http://www.w3.org/2000/svg">
<path d="M21.2398 3.70364C20.6823 3.14622 20.0205 2.70411 19.2922 2.40258C18.5638 2.10104 17.7832 1.94599 16.9949 1.94629C16.2066 1.94659 15.426 2.10222 14.6979 2.4043C13.9698 2.70639 13.3083 3.14899 12.7513 3.70683L12.0242 4.44277L11.3032 3.70842L11.2985 3.70374C10.7414 3.14658 10.0799 2.70462 9.35196 2.40309C8.624 2.10156 7.84378 1.94636 7.05585 1.94636C6.26791 1.94636 5.48769 2.10156 4.75974 2.40309C4.03178 2.70462 3.37034 3.14658 2.81319 3.70374L2.48929 4.02764C1.36407 5.15286 0.731934 6.67898 0.731934 8.27028C0.731934 9.86157 1.36407 11.3877 2.48929 12.5129L11.038 21.0615L12.0034 22.073L12.0264 22.05L12.0514 22.0749L12.9559 21.1206L21.5637 12.5128C22.6872 11.3867 23.3182 9.86087 23.3182 8.27013C23.3182 6.6794 22.6872 5.15361 21.5637 4.0275L21.2398 3.70364ZM20.5028 11.4521L12.0264 19.9287L3.54988 11.4521C2.70597 10.6082 2.23187 9.46363 2.23187 8.27016C2.23187 7.07669 2.70597 5.9321 3.54988 5.08819L3.87383 4.76428C4.71733 3.92079 5.86123 3.44672 7.05411 3.44627C8.24699 3.44583 9.39125 3.91903 10.2354 4.76189L12.021 6.58003L13.8151 4.76428C14.2329 4.34642 14.729 4.01494 15.275 3.7888C15.821 3.56265 16.4061 3.44625 16.9971 3.44625C17.588 3.44625 18.1732 3.56265 18.7192 3.7888C19.2651 4.01494 19.7612 4.34642 20.1791 4.76428L20.503 5.08814C21.3456 5.93275 21.8188 7.07711 21.8188 8.27017C21.8187 9.46323 21.3455 10.6076 20.5028 11.4521V11.4521Z" fill="grey"/>
</svg>
